<svg xmlns="http://www.w3.org/2000/svg" width="56" height="56" fill="none" viewBox="0 0 56 56" class="icon"><path fill="#0067F5" d="M31.894 28.333c-2.161.936-3.649 2.528-3.649 2.528s-1.619-1.732-3.929-2.651v-5.469h7.578v5.591M45.159 28.333c-2.161.936-3.649 2.529-3.649 2.529s-1.619-1.733-3.929-2.652v-4.97h7.578zM18.629 28.332c-2.161.936-3.649 2.529-3.649 2.529s-1.619-1.733-3.929-2.652v-4.033h7.665z"></path><path fill="#0067F5" d="M26.688 48.09a4.6 4.6 0 0 1-2.188-.56 4.5 4.5 0 0 1-2.187.56c-2.11 0-4.288-1.487-4.375-4.313l-.027-.902h6.125l.026.85c.018.612.184 1.11.438 1.504.254-.394.42-.892.438-1.505V25.253h1.75V43.75c-.035.998-.316 1.83-.77 2.494 1.487.411 3.325-.341 3.395-2.52V25.253h1.75V43.75c-.088 2.862-2.267 4.34-4.375 4.34m-6.852-3.465c.385 1.182 1.444 1.715 2.477 1.715.253 0 .516-.035.76-.105a4.3 4.3 0 0 1-.664-1.618h-2.573z"></path><path fill="#81BFF2" d="M41.265 27.213c3.666 0 6.633 3.193 6.633 3.193 0-10.99-8.908-19.897-19.898-19.897S8.102 19.416 8.102 30.406c0 0 2.967-3.193 6.633-3.193s6.633 3.193 6.633 3.193 2.966-3.193 6.632-3.193 6.633 3.193 6.633 3.193 2.966-3.193 6.632-3.193"></path><mask id="mask0_21112_16610" width="40" height="21" x="8" y="10" maskUnits="userSpaceOnUse" style="mask-type:luminance;"><path fill="#fff" d="M41.265 27.213c3.666 0 6.633 3.193 6.633 3.193 0-10.99-8.908-19.897-19.898-19.897S8.102 19.416 8.102 30.406c0 0 2.967-3.193 6.633-3.193s6.633 3.193 6.633 3.193 2.966-3.193 6.632-3.193 6.633 3.193 6.633 3.193 2.966-3.193 6.632-3.193"></path></mask><g mask="url(#mask0_21112_16610)"><path fill="#0067F5" d="M34.633 30.415c0-2.257.83-14.656-6.633-19.897-7.464 5.24-6.632 17.64-6.632 19.897z"></path></g><path fill="#0067F5" d="m26.784 21.788-2.31-2.31 1.233-1.234 2.31 2.31zm-4.62-4.62-2.31-2.31 1.233-1.234 2.31 2.31zm-4.62-4.62-2.31-2.31 1.234-1.234 2.31 2.31zM27.659 13.913l-2.31-2.31 1.234-1.234 2.31 2.31zm-4.62-4.62-2.31-2.31 1.234-1.234 2.31 2.31zm-4.62-4.62-2.31-2.31 1.234-1.234 2.31 2.31zM18.909 22.663l-2.31-2.31 1.234-1.234 2.31 2.31zm-4.62-4.62-2.31-2.31 1.234-1.234 2.31 2.31zm-4.62-4.62-2.31-2.31 1.234-1.234 2.31 2.31z"></path></svg>