<svg xmlns="http://www.w3.org/2000/svg" width="100" height="100" fill="none" viewBox="0 0 100 100" class="icon"><path fill="#0063FD" d="M60.913 21.094c-9.46 0-17.11 10.162-17.11 19.584 0-9.425-7.644-19.584-17.103-19.584S8.74 28.74 9.54 40.678c.104 1.597.22 3.15.638 4.619 1.234 4.481 7.506 21.569 33.625 34.431 26.128-12.86 32.4-29.947 33.635-34.431.412-1.469.53-3.022.637-4.619.8-11.937-7.7-19.584-17.16-19.584z"></path><path fill="#0063FD" d="M26.697 21.094h12.5V27.1H26.569zM73.413 21.094h-12.5V27.1h12.5zM43.803 79.728h12.5v-7.7H43.22z"></path><path fill="#0063FD" d="M50.184 68.75C76.313 55.89 76.2 49.781 77.434 45.297c.413-1.469.532-3.022.638-4.619.8-11.937-7.7-19.584-17.16-19.584-9.459 0-17.109 10.162-17.109 19.584z"></path><path fill="#80BEF1" d="M73.413 21.094c-9.46 0-17.11 10.162-17.11 19.584 0-9.425-7.644-19.584-17.103-19.584S21.24 28.74 22.04 40.678c.104 1.597.22 3.15.638 4.619 1.235 4.481 7.506 21.569 33.625 34.431 26.128-12.86 32.4-29.947 33.634-34.431.413-1.469.532-3.022.638-4.619.8-11.937-7.7-19.584-17.16-19.584z"></path><path fill="#0063FD" d="M87.125 52.156c-.45.857-.962 1.763-1.547 2.713 3.169 1.365 5.047 3.222 5.047 4.978 0 3.184-6.14 6.71-15.087 7.003-.397.013-.791.028-1.197.028-8.94 0-14.722-3.74-20.844-7.697-6.878-4.447-14.672-9.49-27.831-9.49-.46 0-.91.018-1.363.034-10.225.356-18.05 4.669-18.05 10.122s8.528 10.156 19.413 10.156c3.028 0 5.968-.269 8.737-.8l-.587-3.069c-2.575.494-5.32.744-8.15.744-9.597 0-16.288-3.706-16.288-7.031s6.69-7.031 16.288-7.031c.062 0 .118.003.178.003 12.125.044 19.16 4.587 25.956 8.984C57.516 65.5 63.416 69.3 71.96 69.91c.774.057 1.562.094 2.384.094 10.884 0 19.41-4.462 19.41-10.156 0-3.106-2.55-5.84-6.626-7.688z"></path><path fill="#0063FD" d="M90.613 38.622c.015.672.006 1.353-.041 2.056a39 39 0 0 1-.213 2.403c.166.381.263.763.263 1.138 0 .787-.388 1.597-1.088 2.375-2.256 2.5-7.875 4.656-15.196 4.656-8.941 0-14.722-3.74-20.844-7.697-6.878-4.447-14.672-9.49-27.831-9.49a38 38 0 0 0-3.079.134C13.216 34.95 6.25 39.075 6.25 44.219c0 5.143 6.075 8.887 15.116 9.915l.353-3.103c-7.038-.8-12.344-3.728-12.344-6.812 0-2.894 5.069-6.072 12.706-6.85a35 35 0 0 1 3.578-.181c12.238 0 19.304 4.568 26.135 8.987 6.234 4.031 12.678 8.2 22.54 8.2 5.032 0 9.547-.962 12.963-2.55 3.969-1.847 6.45-4.544 6.45-7.606 0-2.085-1.153-4.003-3.138-5.597z"></path></svg>