<svg data-v-c6684ada="" xmlns="http://www.w3.org/2000/svg" width="64" height="64" fill="none" viewBox="0 0 64 64"><path fill="#80BEF1" d="M48 53.74H16.07l-6-34.93H54z"></path><path fill="#0063FD" d="M32 21.81c12.112 0 21.93-1.343 21.93-3s-9.818-3-21.93-3-21.93 1.343-21.93 3 9.819 3 21.93 3"></path><path fill="#80BEF1" d="M32 56c8.837 0 16-.98 16-2.19s-7.163-2.19-16-2.19-16 .98-16 2.19S23.163 56 32 56"></path><path fill="#fff" d="M40.01 15.06c-2.6 4.51-9.72 5.27-9.72 5.27s-2.9-6.55-.3-11.06S39.71 4 39.71 4s2.9 6.55.3 11.06"></path><path fill="#0063FD" d="m29.67 21.4-.29-.67c-.13-.29-3.08-7.07-.25-11.96S39.3 3.04 39.61 3.01l.73-.08.29.67c.13.29 3.08 7.07.25 11.96-2.82 4.89-10.17 5.73-10.48 5.76zm9.4-16.28c-1.8.33-6.37 1.46-8.22 4.66s-.54 7.72.08 9.44c1.8-.33 6.37-1.46 8.22-4.66s.54-7.72-.08-9.44"></path><mask id="mask0_407_75" width="44" height="38" x="10" y="18" maskUnits="userSpaceOnUse" style="mask-type:luminance;"><path fill="#fff" d="M54 18.81H10.07l5.99 34.85c-.03.05-.06.1-.06.15C16 55.02 23.16 56 32 56s16-.98 16-2.19c0-.02-.02-.05-.03-.07H48z"></path></mask><g mask="url(#mask0_407_75)"><path fill="#0063FD" d="m24.07 55.74-6-34.93L10 19l6 34.5s-.5.5 1 1 5 1 5 1z"></path></g><path fill="#0063FD" d="m12.18 31.08.36 2.11c5.4 1.47 15.59 1.62 19.46 1.62s14.16-.15 19.53-1.64l.36-2.12c-2.69.86-9.75 1.76-19.9 1.76s-17.08-.88-19.82-1.73zM49.74 43.58l.36-2.09c-3.45.7-9.72 1.31-18.1 1.31s-14.57-.61-18.03-1.3l.36 2.09C19.95 44.68 28.52 44.8 32 44.8s12.13-.12 17.74-1.23z"></path><path fill="#fff" d="M42.37 28.67h-2v18.66h2zM27.07 28.67h-2v18.66h2z"></path><path fill="#fff" d="m41.37 47.33.78-.63-14.78-18.03h-1.3l-.77.64 14.78 18.02z"></path></svg>