<svg xmlns="http://www.w3.org/2000/svg" xmlns:xlink="http://www.w3.org/1999/xlink" viewBox="0 0 192 192" width="192" height="192" preserveAspectRatio="xMidYMid meet" style="width: 100%; height: 100%; transform: translate3d(0px, 0px, 0px); content-visibility: visible;"><defs><clipPath id="__lottie_element_443"><rect width="192" height="192" x="0" y="0"></rect></clipPath></defs><g clip-path="url(#__lottie_element_443)"><g style="display: block;" transform="matrix(1,0,0,1,4.35400390625,18.468002319335938)" opacity="1"><g opacity="1" transform="matrix(1,0,0,1,75.79100036621094,74.58499908447266)"><path fill="rgb(14,122,70)" fill-opacity="1" d=" M75.51100158691406,-50.45100021362305 C75.51100158691406,-50.45100021362305 59.47700119018555,-68.56999969482422 59.47700119018555,-68.56999969482422 C59.47700119018555,-68.56999969482422 9.914999961853027,-74.33499908447266 9.914999961853027,-74.33499908447266 C9.914999961853027,-74.33499908447266 -75.54199981689453,1.9520000219345093 -75.54199981689453,1.9520000219345093 C-75.54199981689453,1.9520000219345093 -11.494999885559082,74.33499908447266 -11.494999885559082,74.33499908447266 C-11.494999885559082,74.33499908447266 73.96199798583984,-1.9520000219345093 73.96199798583984,-1.9520000219345093 C73.96199798583984,-1.9520000219345093 75.54199981689453,-50.42100143432617 75.54199981689453,-50.42100143432617 C75.54199981689453,-50.42100143432617 75.51100158691406,-50.45100021362305 75.51100158691406,-50.45100021362305z M44.8390007019043,-37.27399826049805 C39.79800033569336,-41.880001068115234 40.22200012207031,-49.840999603271484 45.71900177001953,-53.867000579833984 C49.362998962402344,-56.551998138427734 54.58700180053711,-56.551998138427734 58.20100021362305,-53.867000579833984 C64.36599731445312,-49.262001037597656 63.90999984741211,-39.95800018310547 57.290000915527344,-35.99300003051758 C53.37300109863281,-33.67499923706055 48.209999084472656,-34.2239990234375 44.8390007019043,-37.30500030517578 C44.8390007019043,-37.30500030517578 44.8390007019043,-37.27399826049805 44.8390007019043,-37.27399826049805z"></path></g><g opacity="1" transform="matrix(1,0,0,1,82.7760009765625,82.47000122070312)"><path fill="rgb(111,210,110)" fill-opacity="1" d=" M75.51100158691406,-50.43600082397461 C75.51100158691406,-50.43600082397461 59.47700119018555,-68.55500030517578 59.47700119018555,-68.55500030517578 C59.47700119018555,-68.55500030517578 9.914999961853027,-74.31999969482422 9.914999961853027,-74.31999969482422 C9.914999961853027,-74.31999969482422 -75.54199981689453,1.937000036239624 -75.54199981689453,1.937000036239624 C-75.54199981689453,1.937000036239624 -11.494999885559082,74.31999969482422 -11.494999885559082,74.31999969482422 C-11.494999885559082,74.31999969482422 73.96199798583984,-1.9670000076293945 73.96199798583984,-1.9670000076293945 C73.96199798583984,-1.9670000076293945 75.54199981689453,-50.43600082397461 75.54199981689453,-50.43600082397461 C75.54199981689453,-50.43600082397461 75.51100158691406,-50.43600082397461 75.51100158691406,-50.43600082397461z M44.8390007019043,-37.25899887084961 C39.79800033569336,-41.8650016784668 40.22200012207031,-49.82600021362305 45.71900177001953,-53.85200119018555 C49.362998962402344,-56.5369987487793 54.58700180053711,-56.5369987487793 58.20100021362305,-53.85200119018555 C64.36599731445312,-49.24599838256836 63.90999984741211,-39.94300079345703 57.290000915527344,-35.97800064086914 C53.37300109863281,-33.65999984741211 48.209999084472656,-34.20899963378906 44.8390007019043,-37.28900146484375 C44.8390007019043,-37.28900146484375 44.8390007019043,-37.25899887084961 44.8390007019043,-37.25899887084961z"></path></g></g><g style="display: block;" transform="matrix(1,0,0,1,54.613006591796875,71.72600555419922)" opacity="1"><g opacity="1" transform="matrix(1,0,0,1,32.486000061035156,27.474000930786133)"><path fill="rgb(255,255,255)" fill-opacity="1" d=" M-26.527000427246094,25.60700035095215 C-26.527000427246094,25.60700035095215 -32.236000061035156,21.976999282836914 -32.236000061035156,21.976999282836914 C-32.236000061035156,21.976999282836914 -13.012999534606934,-8.342000007629395 -13.012999534606934,-8.342000007629395 C-13.012999534606934,-8.342000007629395 -8.336000442504883,-9.378999710083008 -8.336000442504883,-9.378999710083008 C-8.336000442504883,-9.378999710083008 9.125,1.784999966621399 9.125,1.784999966621399 C9.125,1.784999966621399 26.525999069213867,-25.60700035095215 26.525999069213867,-25.60700035095215 C26.525999069213867,-25.60700035095215 32.236000061035156,-21.976999282836914 32.236000061035156,-21.976999282836914 C32.236000061035156,-21.976999282836914 13.012999534606934,8.343000411987305 13.012999534606934,8.343000411987305 C13.012999534606934,8.343000411987305 8.336000442504883,9.380000114440918 8.336000442504883,9.380000114440918 C8.336000442504883,9.380000114440918 -9.12600040435791,-1.784000039100647 -9.12600040435791,-1.784000039100647 C-9.12600040435791,-1.784000039100647 -26.527000427246094,25.60700035095215 -26.527000427246094,25.60700035095215z"></path></g><g opacity="1" transform="matrix(1,0,0,1,54.15399932861328,13.869000434875488)"><path fill="rgb(255,255,255)" fill-opacity="1" d=" M16.09600067138672,12.156000137329102 C16.09600067138672,12.156000137329102 9.505999565124512,13.619999885559082 9.505999565124512,13.619999885559082 C9.505999565124512,13.619999885559082 5.132999897003174,-6.26800012588501 5.132999897003174,-6.26800012588501 C5.132999897003174,-6.26800012588501 -14.666999816894531,-1.8760000467300415 -14.666999816894531,-1.8760000467300415 C-14.666999816894531,-1.8760000467300415 -16.125999450683594,-8.494999885559082 -16.125999450683594,-8.494999885559082 C-16.125999450683594,-8.494999885559082 6.984000205993652,-13.619999885559082 6.984000205993652,-13.619999885559082 C6.984000205993652,-13.619999885559082 11.02299976348877,-11.027000427246094 11.02299976348877,-11.027000427246094 C11.02299976348877,-11.027000427246094 16.125999450683594,12.185999870300293 16.125999450683594,12.185999870300293 C16.125999450683594,12.185999870300293 16.09600067138672,12.156000137329102 16.09600067138672,12.156000137329102z"></path></g></g><g style="display: block;" transform="matrix(1,0,0,1,120.90801239013672,40.06400680541992)" opacity="1"><g opacity="1" transform="matrix(1,0,0,1,28.79599952697754,52.439998626708984)"><path fill="rgb(14,122,70)" fill-opacity="1" d=" M18.76799964904785,-40.111000061035156 C15.76099967956543,-44.80799865722656 12.23900032043457,-48.34700012207031 8.35099983215332,-50.45100021362305 C6.953999996185303,-51.24399948120117 5.4670000076293945,-51.792999267578125 3.9790000915527344,-52.189998626708984 C3.9790000915527344,-52.189998626708984 3.9179999828338623,-52.189998626708984 3.9179999828338623,-52.189998626708984 C3.9179999828338623,-52.189998626708984 5.769999980926514,-50.084999084472656 5.769999980926514,-50.084999084472656 C5.769999980926514,-50.084999084472656 5.952000141143799,-49.87200164794922 5.952000141143799,-49.87200164794922 C5.952000141143799,-49.87200164794922 10.902000427246094,-44.290000915527344 10.902000427246094,-44.290000915527344 C10.902000427246094,-44.290000915527344 12.906999588012695,-42.03200149536133 12.906999588012695,-42.03200149536133 C12.906999588012695,-42.03200149536133 12.78499984741211,-38.0369987487793 12.78499984741211,-38.0369987487793 C18.615999221801758,-29.586999893188477 22.472999572753906,-15.64799976348877 22.472999572753906,-0.24400000274181366 C22.472999572753906,23.18199920654297 13.513999938964844,43.22200012207031 2.430000066757202,45.814998626708984 C1.6100000143051147,45.99800109863281 0.8199999928474426,46.0890007019043 0,46.0890007019043 C-3.309999942779541,46.0890007019043 -6.4679999351501465,44.534000396728516 -9.322999954223633,41.72800064086914 C-11.96500015258789,39.165000915527344 -14.36400032043457,35.566001892089844 -16.33799934387207,31.173999786376953 C-17.79599952697754,27.940000534057617 -19.070999145507812,24.280000686645508 -20.01300048828125,20.315000534057617 C-20.347000122070312,19.034000396728516 -20.649999618530273,17.722000122070312 -20.89299964904785,16.349000930786133 C-21.349000930786133,14.031000137329102 -21.71299934387207,11.652000427246094 -21.98699951171875,9.180999755859375 C-22.31999969482422,6.10099983215332 -22.472000122070312,2.989000082015991 -22.472000122070312,-0.24400000274181366 C-22.472000122070312,-10.888999938964844 -20.6200008392334,-20.80299949645996 -17.55299949645996,-28.702999114990234 C-16.792999267578125,-30.715999603271484 -15.942999839782715,-32.606998443603516 -15.031999588012695,-34.34600067138672 C-12.723999977111816,-38.676998138427734 -9.991000175476074,-42.0629997253418 -7.014999866485596,-44.137001037597656 C-6.195000171661377,-44.71699905395508 -5.375,-45.20500183105469 -4.554999828338623,-45.57099914550781 C-5.375,-46.180999755859375 -6.285999774932861,-46.608001708984375 -7.228000164031982,-46.91299819946289 C-9.050000190734863,-47.55400085449219 -11.02299976348877,-47.64500045776367 -12.87600040435791,-47.21799850463867 C-16.034000396728516,-44.35100173950195 -18.858999252319336,-40.44599914550781 -21.226999282836914,-35.71900177001953 C-21.378999710083008,-35.41400146484375 -21.500999450683594,-35.138999938964844 -21.621999740600586,-34.83399963378906 C-25.934999465942383,-25.652999877929688 -28.54599952697754,-13.604000091552734 -28.54599952697754,-0.24400000274181366 C-28.54599952697754,0.4269999861717224 -28.54599952697754,1.0980000495910645 -28.516000747680664,1.7690000534057617 C-28.393999099731445,8.663000106811523 -27.573999404907227,15.15999984741211 -26.177000045776367,21.07699966430664 C-25.874000549316406,22.388999938964844 -25.540000915527344,23.670000076293945 -25.174999237060547,24.889999389648438 C-24.052000045776367,28.733999252319336 -22.684999465942383,32.24100112915039 -21.106000900268555,35.41400146484375 C-15.913000106811523,45.784000396728516 -8.442000389099121,52.189998626708984 0,52.189998626708984 C0.36399999260902405,52.189998626708984 0.7590000033378601,52.189998626708984 1.1239999532699585,52.12900161743164 C4.73799991607666,51.915000915527344 8.138999938964844,50.481998443603516 11.267000198364258,48.10300064086914 C21.5310001373291,40.20199966430664 28.54599952697754,21.77899932861328 28.54599952697754,-0.24400000274181366 C28.54599952697754,-16.3799991607666 24.7810001373291,-30.56399917602539 18.76799964904785,-40.111000061035156z"></path></g></g><g style="display: block;" transform="matrix(1,0,0,1,130.38299560546875,41.74200439453125)" opacity="1"><g opacity="1" transform="matrix(1,0,0,1,28.79599952697754,52.683998107910156)"><path fill="rgb(14,122,70)" fill-opacity="1" d=" M0,-52.433998107910156 C-0.36500000953674316,-52.433998107910156 -0.7590000033378601,-52.433998107910156 -1.1239999532699585,-52.37300109863281 C-2.003999948501587,-52.34199905395508 -2.8239998817443848,-52.220001220703125 -3.674999952316284,-52.00699996948242 C-3.674999952316284,-52.00699996948242 -3.7049999237060547,-52.00699996948242 -3.7049999237060547,-52.00699996948242 C-3.7049999237060547,-52.00699996948242 -3.5230000019073486,-51.792999267578125 -3.5230000019073486,-51.792999267578125 C-3.5230000019073486,-51.792999267578125 1.4270000457763672,-46.21099853515625 1.4270000457763672,-46.21099853515625 C4.2210001945495605,-45.845001220703125 6.86299991607666,-44.38100051879883 9.293000221252441,-42.03300094604492 C17.006000518798828,-34.59000015258789 22.472000122070312,-18.332000732421875 22.472000122070312,0 C22.472000122070312,23.884000778198242 13.180000305175781,44.229000091552734 1.7920000553131104,46.180999755859375 C1.215000033378601,46.27299880981445 0.6069999933242798,46.33399963378906 0,46.33399963378906 C-2.4600000381469727,46.33399963378906 -4.828999996185303,45.47999954223633 -7.046000003814697,43.893001556396484 C-12.178000450134277,40.263999938964844 -16.520999908447266,32.88199996948242 -19.284000396728516,23.395999908447266 C-20.347000122070312,19.704999923706055 -21.19700050354004,15.678000450134277 -21.714000701904297,11.439000129699707 C-22.229999542236328,7.7779998779296875 -22.472999572753906,3.934999942779541 -22.472999572753906,0 C-22.472999572753906,-10.553999900817871 -20.650999069213867,-20.437000274658203 -17.61400032043457,-28.336999893188477 C-15.548999786376953,-33.797000885009766 -12.906999588012695,-38.31100082397461 -9.869999885559082,-41.452999114990234 C-10.355999946594238,-43.43600082397461 -11.449000358581543,-45.26599884033203 -13.119000434875488,-46.7599983215332 C-17.55299949645996,-42.643001556396484 -21.319000244140625,-36.41999816894531 -23.990999221801758,-28.79400062561035 C-26.875999450683594,-20.589000701904297 -28.54599952697754,-10.706000328063965 -28.54599952697754,0 C-28.54599952697754,3.874000072479248 -28.333999633789062,7.625999927520752 -27.909000396728516,11.225000381469727 C-27.878000259399414,11.560999870300293 -27.847999572753906,11.835000038146973 -27.78700065612793,12.140000343322754 C-27.635000228881836,13.543000221252441 -27.42300033569336,14.916000366210938 -27.14900016784668,16.288000106811523 C-26.481000900268555,20.4060001373291 -25.510000228881836,24.31100082397461 -24.295000076293945,27.878999710083008 C-22.80699920654297,32.362998962402344 -20.923999786376953,36.38999938964844 -18.79800033569336,39.805999755859375 C-15.791999816894531,44.534000396728516 -12.269000053405762,48.10300064086914 -8.35200023651123,50.207000732421875 C-5.739999771118164,51.672000885009766 -2.9149999618530273,52.433998107910156 0,52.433998107910156 C16.003999710083008,52.433998107910156 28.54599952697754,29.405000686645508 28.54599952697754,0 C28.54599952697754,-29.40399932861328 16.003999710083008,-52.433998107910156 0,-52.433998107910156z"></path></g></g></g></svg>