<svg xmlns="http://www.w3.org/2000/svg" width="80" height="80" fill="none" viewBox="0 0 56 56" class="icon"><path fill="#0063FD" d="M10.5 7.884v15.758c0 5.793 4.699 10.492 10.491 10.5h6.117c5.8.01 10.508-4.69 10.508-10.49V7.883zM42.7 26.25V24.5c4.419 0 8.024-3.596 8.024-8.024V12.25h-6.125V10.5h7.875v5.976c0 5.39-4.384 9.774-9.774 9.774"></path><path fill="#DFF4FF" d="M17.5 7.884v15.758c0 5.793 4.699 10.492 10.491 10.5h6.117c5.8.01 10.508-4.69 10.508-10.49V7.883z"></path><path fill="#80BDF0" d="M17.5 7.884v15.758c0 5.793 4.699 10.492 10.491 10.5h6.117c5.8.01 10.508-4.69 10.508-10.49V7.883z"></path><path fill="#0063FD" d="M12.399 26.25c-5.39 0-9.774-4.384-9.774-9.774V10.5H10.5v1.75H4.375v4.226c0 4.419 3.596 8.024 8.024 8.024zM30.616 34.143h-1.75V47.25h1.75zM27.116 34.143h-1.75V47.25h1.75z"></path><path fill="#0063FD" d="M35 45.5H21v1.75h14z"></path><mask id="mask0_21112_16624" width="28" height="28" x="17" y="7" maskUnits="userSpaceOnUse" style="mask-type:luminance;"><mask id="mask1_21112_16624" width="28" height="28" x="17" y="7" maskUnits="userSpaceOnUse" style="mask-type:luminance;"><path fill="#fff" d="M17.5 7.884v15.758c0 5.793 4.699 10.492 10.491 10.5h6.117c5.8.01 10.508-4.69 10.508-10.49V7.883z"></path></mask><g mask="url(#mask1_21112_16624)"><path fill="#fff" d="M17.5 7.884v15.758c0 5.793 4.699 10.492 10.491 10.5h6.117c5.8.01 10.508-4.69 10.508-10.49V7.883z"></path></g></mask><g mask="url(#mask0_21112_16624)"><path fill="#0063FD" d="M34.991 21.324h-7.875c-6.265-.009-11.366-5.11-11.366-11.384h1.75c0 5.303 4.314 9.625 9.616 9.625h7.867a9.56 9.56 0 0 0 6.807-2.817 9.57 9.57 0 0 0 2.826-6.808h1.75c0 3.037-1.181 5.898-3.334 8.05a11.32 11.32 0 0 1-8.04 3.325zm8.041 5.425a11.3 11.3 0 0 0 3.334-8.05h-1.75a9.57 9.57 0 0 1-2.826 6.808 9.56 9.56 0 0 1-6.807 2.817h-7.875c-5.303-.009-9.617-4.331-9.617-9.634h-1.75c0 6.265 5.102 11.375 11.367 11.375h7.866a11.32 11.32 0 0 0 8.041-3.325z"></path></g><path fill="#0063FD" d="M34.991 21.324h-7.875c-6.265-.009-11.366-5.11-11.366-11.384h1.75c0 5.303 4.314 9.625 9.616 9.625h7.867c2.572 0 1.802.858 7.183-2.082-2.152 2.144-4.147 3.832-7.183 3.832zm8.041 5.425c2.153-2.152.587-3.054-1.233-1.242a9.56 9.56 0 0 1-6.808 2.817h-7.875c-5.302-.009-9.616-4.331-9.616-9.634h-1.75c0 6.265 5.101 11.375 11.366 11.375h7.867a11.32 11.32 0 0 0 8.04-3.325z"></path></svg>